<mxfile host="app.diagrams.net" agent="Mozilla/5.0 (Windows NT 10.0; Win64; x64; rv:133.0) Gecko/20100101 Firefox/133.0" version="26.0.4">
  <diagram name="Page-1" id="GCl3pEUKA59cAe8rtv48">
    <mxGraphModel dx="808" dy="518" grid="1" gridSize="10" guides="1" tooltips="1" connect="1" arrows="1" fold="1" page="1" pageScale="1" pageWidth="850" pageHeight="1100" math="0" shadow="0">
      <root>
        <mxCell id="0" />
        <mxCell id="1" parent="0" />
        <mxCell id="tOJh1yTfUghWuhv53dv5-1" value="Player Account" style="rounded=0;whiteSpace=wrap;html=1;" vertex="1" parent="1">
          <mxGeometry x="160" y="80" width="120" height="30" as="geometry" />
        </mxCell>
        <mxCell id="tOJh1yTfUghWuhv53dv5-2" value="Team" style="rounded=0;whiteSpace=wrap;html=1;" vertex="1" parent="1">
          <mxGeometry x="360" y="80" width="120" height="30" as="geometry" />
        </mxCell>
        <mxCell id="tOJh1yTfUghWuhv53dv5-3" value="&lt;div&gt;Team identifier&lt;/div&gt;&lt;div&gt;Team name&lt;br&gt;&lt;/div&gt;&lt;div&gt;Player list&lt;/div&gt;&lt;div&gt;Off day&lt;/div&gt;&lt;div&gt;Preferred time&lt;br&gt;&lt;/div&gt;" style="rounded=0;whiteSpace=wrap;html=1;" vertex="1" parent="1">
          <mxGeometry x="360" y="110" width="120" height="90" as="geometry" />
        </mxCell>
        <mxCell id="tOJh1yTfUghWuhv53dv5-4" value="&lt;div&gt;Player identifier&lt;br&gt;&lt;/div&gt;Login details" style="rounded=0;whiteSpace=wrap;html=1;" vertex="1" parent="1">
          <mxGeometry x="160" y="110" width="120" height="90" as="geometry" />
        </mxCell>
        <mxCell id="tOJh1yTfUghWuhv53dv5-7" value="Team Account" style="rounded=0;whiteSpace=wrap;html=1;" vertex="1" parent="1">
          <mxGeometry x="360" y="280" width="120" height="30" as="geometry" />
        </mxCell>
        <mxCell id="tOJh1yTfUghWuhv53dv5-8" value="&lt;div&gt;Team identifier&lt;/div&gt;&lt;div&gt;Login details&lt;br&gt;&lt;/div&gt;" style="rounded=0;whiteSpace=wrap;html=1;" vertex="1" parent="1">
          <mxGeometry x="360" y="310" width="120" height="90" as="geometry" />
        </mxCell>
        <mxCell id="tOJh1yTfUghWuhv53dv5-9" value="Commissioner Account" style="rounded=0;whiteSpace=wrap;html=1;" vertex="1" parent="1">
          <mxGeometry x="560" y="280" width="120" height="40" as="geometry" />
        </mxCell>
        <mxCell id="tOJh1yTfUghWuhv53dv5-10" value="&lt;div&gt;Commissioner identifier&lt;/div&gt;&lt;div&gt;Login details&lt;br&gt;&lt;/div&gt;" style="rounded=0;whiteSpace=wrap;html=1;" vertex="1" parent="1">
          <mxGeometry x="560" y="320" width="120" height="90" as="geometry" />
        </mxCell>
        <mxCell id="tOJh1yTfUghWuhv53dv5-11" value="League" style="rounded=0;whiteSpace=wrap;html=1;" vertex="1" parent="1">
          <mxGeometry x="560" y="80" width="120" height="30" as="geometry" />
        </mxCell>
        <mxCell id="tOJh1yTfUghWuhv53dv5-12" value="&lt;div&gt;Season schedule&lt;br&gt;&lt;/div&gt;&lt;div&gt;Team list&lt;br&gt;&lt;/div&gt;&lt;div&gt;Player list&lt;/div&gt;" style="rounded=0;whiteSpace=wrap;html=1;" vertex="1" parent="1">
          <mxGeometry x="560" y="110" width="120" height="90" as="geometry" />
        </mxCell>
        <mxCell id="tOJh1yTfUghWuhv53dv5-13" value="" style="endArrow=none;html=1;rounded=0;entryX=1;entryY=0.5;entryDx=0;entryDy=0;exitX=0;exitY=0.5;exitDx=0;exitDy=0;" edge="1" parent="1" source="tOJh1yTfUghWuhv53dv5-12" target="tOJh1yTfUghWuhv53dv5-3">
          <mxGeometry width="50" height="50" relative="1" as="geometry">
            <mxPoint x="400" y="370" as="sourcePoint" />
            <mxPoint x="450" y="320" as="targetPoint" />
          </mxGeometry>
        </mxCell>
        <mxCell id="tOJh1yTfUghWuhv53dv5-14" value="&lt;div&gt;&lt;font style=&quot;font-size: 16px;&quot;&gt;*&lt;/font&gt;&lt;/div&gt;" style="text;html=1;align=center;verticalAlign=middle;whiteSpace=wrap;rounded=0;" vertex="1" parent="1">
          <mxGeometry x="460" y="130" width="60" height="30" as="geometry" />
        </mxCell>
        <mxCell id="tOJh1yTfUghWuhv53dv5-15" value="1" style="text;html=1;align=center;verticalAlign=middle;whiteSpace=wrap;rounded=0;" vertex="1" parent="1">
          <mxGeometry x="520" y="130" width="60" height="30" as="geometry" />
        </mxCell>
        <mxCell id="tOJh1yTfUghWuhv53dv5-16" value="" style="endArrow=none;html=1;rounded=0;entryX=0.5;entryY=1;entryDx=0;entryDy=0;exitX=0.5;exitY=0;exitDx=0;exitDy=0;" edge="1" parent="1" source="tOJh1yTfUghWuhv53dv5-7" target="tOJh1yTfUghWuhv53dv5-3">
          <mxGeometry width="50" height="50" relative="1" as="geometry">
            <mxPoint x="450" y="280" as="sourcePoint" />
            <mxPoint x="500" y="230" as="targetPoint" />
          </mxGeometry>
        </mxCell>
        <mxCell id="tOJh1yTfUghWuhv53dv5-18" value="&lt;div&gt;&lt;font style=&quot;font-size: 16px;&quot;&gt;*&lt;/font&gt;&lt;/div&gt;" style="text;html=1;align=center;verticalAlign=middle;whiteSpace=wrap;rounded=0;" vertex="1" parent="1">
          <mxGeometry x="580" y="250" width="60" height="30" as="geometry" />
        </mxCell>
        <mxCell id="tOJh1yTfUghWuhv53dv5-19" value="" style="endArrow=none;html=1;rounded=0;entryX=0.5;entryY=1;entryDx=0;entryDy=0;exitX=0.5;exitY=0;exitDx=0;exitDy=0;" edge="1" parent="1" source="tOJh1yTfUghWuhv53dv5-9" target="tOJh1yTfUghWuhv53dv5-12">
          <mxGeometry width="50" height="50" relative="1" as="geometry">
            <mxPoint x="430" y="290" as="sourcePoint" />
            <mxPoint x="430" y="210" as="targetPoint" />
          </mxGeometry>
        </mxCell>
        <mxCell id="tOJh1yTfUghWuhv53dv5-21" value="&lt;div&gt;1&lt;/div&gt;" style="text;html=1;align=center;verticalAlign=middle;whiteSpace=wrap;rounded=0;" vertex="1" parent="1">
          <mxGeometry x="580" y="200" width="60" height="30" as="geometry" />
        </mxCell>
        <mxCell id="tOJh1yTfUghWuhv53dv5-22" value="&lt;div&gt;1&lt;/div&gt;" style="text;html=1;align=center;verticalAlign=middle;whiteSpace=wrap;rounded=0;" vertex="1" parent="1">
          <mxGeometry x="380" y="250" width="60" height="30" as="geometry" />
        </mxCell>
        <mxCell id="tOJh1yTfUghWuhv53dv5-23" value="&lt;div&gt;1&lt;/div&gt;" style="text;html=1;align=center;verticalAlign=middle;whiteSpace=wrap;rounded=0;" vertex="1" parent="1">
          <mxGeometry x="380" y="200" width="60" height="30" as="geometry" />
        </mxCell>
        <mxCell id="tOJh1yTfUghWuhv53dv5-24" value="" style="endArrow=none;html=1;rounded=0;exitX=1;exitY=0.5;exitDx=0;exitDy=0;entryX=0;entryY=0.5;entryDx=0;entryDy=0;" edge="1" parent="1" source="tOJh1yTfUghWuhv53dv5-4" target="tOJh1yTfUghWuhv53dv5-3">
          <mxGeometry width="50" height="50" relative="1" as="geometry">
            <mxPoint x="320" y="280" as="sourcePoint" />
            <mxPoint x="370" y="230" as="targetPoint" />
          </mxGeometry>
        </mxCell>
        <mxCell id="tOJh1yTfUghWuhv53dv5-25" value="&lt;div&gt;&lt;font style=&quot;font-size: 16px;&quot;&gt;*&lt;/font&gt;&lt;/div&gt;" style="text;html=1;align=center;verticalAlign=middle;whiteSpace=wrap;rounded=0;" vertex="1" parent="1">
          <mxGeometry x="260" y="130" width="60" height="30" as="geometry" />
        </mxCell>
        <mxCell id="tOJh1yTfUghWuhv53dv5-27" value="1" style="text;html=1;align=center;verticalAlign=middle;whiteSpace=wrap;rounded=0;" vertex="1" parent="1">
          <mxGeometry x="320" y="130" width="60" height="30" as="geometry" />
        </mxCell>
      </root>
    </mxGraphModel>
  </diagram>
</mxfile>
